HIERARCHY
ROOT Hips
{
	OFFSET 0.00000 0.00000 0.00000
	CHANNELS 6 Xposition Yposition Zposition Zrotation Yrotation Xrotation 
	JOINT LHipJoint
	{
		OFFSET 0 0 0
		CHANNELS 3 Zrotation Yrotation Xrotation
		JOINT LeftUpLeg
		{
			OFFSET 1.34019 -1.87553 0.90315
			CHANNELS 3 Zrotation Yrotation Xrotation
			JOINT LeftLeg
			{
				OFFSET 2.55316 -7.01474 0.00000
				CHANNELS 3 Zrotation Yrotation Xrotation
				JOINT LeftFoot
				{
					OFFSET 2.64657 -7.27139 0.00000
					CHANNELS 3 Zrotation Yrotation Xrotation
					JOINT LeftToeBase
					{
						OFFSET 0.24207 -0.66507 2.14489
						CHANNELS 3 Zrotation Yrotation Xrotation
						End Site
						{
							OFFSET 0.00000 -0.00000 1.12451
						}
					}
				}
			}
		}
	}
	JOINT RHipJoint
	{
		OFFSET 0 0 0
		CHANNELS 3 Zrotation Yrotation Xrotation
		JOINT RightUpLeg
		{
			OFFSET -1.28320 -1.87553 0.90315
			CHANNELS 3 Zrotation Yrotation Xrotation
			JOINT RightLeg
			{
				OFFSET -2.60484 -7.15674 0.00000
				CHANNELS 3 Zrotation Yrotation Xrotation
				JOINT RightFoot
				{
					OFFSET -2.60296 -7.15159 0.00000
					CHANNELS 3 Zrotation Yrotation Xrotation
					JOINT RightToeBase
					{
						OFFSET -0.31082 -0.85398 2.28998
						CHANNELS 3 Zrotation Yrotation Xrotation
						End Site
						{
							OFFSET -0.00000 -0.00000 1.21611
						}
					}
				}
			}
		}
	}
	JOINT LowerBack
	{
		OFFSET 0 0 0
		CHANNELS 3 Zrotation Yrotation Xrotation
		JOINT Spine
		{
			OFFSET -0.00160 2.05581 -0.15156
			CHANNELS 3 Zrotation Yrotation Xrotation
			JOINT Spine1
			{
				OFFSET 0.04594 2.06326 -0.01617
				CHANNELS 3 Zrotation Yrotation Xrotation
				JOINT Neck
				{
					OFFSET 0 0 0
					CHANNELS 3 Zrotation Yrotation Xrotation
					JOINT Neck1
					{
						OFFSET 0.03753 1.73883 0.26751
						CHANNELS 3 Zrotation Yrotation Xrotation
						JOINT Head
						{
							OFFSET -0.09795 1.76129 -0.31794
							CHANNELS 3 Zrotation Yrotation Xrotation
							End Site
							{
								OFFSET -0.03611 1.79987 -0.13846
							}
						}
					}
				}
				JOINT LeftShoulder
				{
					OFFSET 0 0 0
					CHANNELS 3 Zrotation Yrotation Xrotation
					JOINT LeftArm
					{
						OFFSET 3.30667 1.29205 -0.22445
						CHANNELS 3 Zrotation Yrotation Xrotation
						JOINT LeftForeArm
						{
							OFFSET 4.92785 -0.00000 -0.00000
							CHANNELS 3 Zrotation Yrotation Xrotation
							JOINT LeftHand
							{
								OFFSET 3.44052 -0.00000 0.00000
								CHANNELS 3 Zrotation Yrotation Xrotation
								JOINT LeftFingerBase
								{
									OFFSET 0 0 0
									CHANNELS 3 Zrotation Yrotation Xrotation
									JOINT LeftHandIndex1
									{
										OFFSET 0.65433 -0.00000 0.00000
										CHANNELS 3 Zrotation Yrotation Xrotation
										End Site
										{
											OFFSET 0.52753 -0.00000 0.00000
										}
									}
								}
								JOINT LThumb
								{
									OFFSET 0 0 0
									CHANNELS 3 Zrotation Yrotation Xrotation
									End Site
									{
										OFFSET 0.53559 -0.00000 0.53559
									}
								}
							}
						}
					}
				}
				JOINT RightShoulder
				{
					OFFSET 0 0 0
					CHANNELS 3 Zrotation Yrotation Xrotation
					JOINT RightArm
					{
						OFFSET -3.20032 1.49783 -0.27688
						CHANNELS 3 Zrotation Yrotation Xrotation
						JOINT RightForeArm
						{
							OFFSET -5.09181 -0.00000 -0.00000
							CHANNELS 3 Zrotation Yrotation Xrotation
							JOINT RightHand
							{
								OFFSET -3.49865 -0.00000 -0.00000
								CHANNELS 3 Zrotation Yrotation Xrotation
								JOINT RightFingerBase
								{
									OFFSET 0 0 0
									CHANNELS 3 Zrotation Yrotation Xrotation
									JOINT RightHandIndex1
									{
										OFFSET -0.66641 -0.00000 0.00000
										CHANNELS 3 Zrotation Yrotation Xrotation
										End Site
										{
											OFFSET -0.53728 -0.00000 0.00000
										}
									}
								}
								JOINT RThumb
								{
									OFFSET 0 0 0
									CHANNELS 3 Zrotation Yrotation Xrotation
									End Site
									{
										OFFSET -0.54548 -0.00000 0.54548
									}
								}
							}
						}
					}
				}
			}
		}
	}
}
MOTION
Frames: 12
Frame Time: .0083333
3.5213 18.0054 3.3143 -0.5424 8.8123 -2.6960 0.0000 0.0000 0.0000 -22.5613 -5.0038 -2.4352 1.9098 8.6756 24.7856 -0.2646 14.2181 -16.8597 0.0610 -1.5941 -4.3851 0.0000 0.0000 0.0000 -4.8204 -17.5511 -26.8559 -7.5117 -15.7481 50.7840 -2.1630 -3.9186 26.8803 -0.1588 2.5677 -7.0774 -5.2030 0.7646 7.8127 3.3108 0.7005 0.9098 6.3335 0.4464 -3.5453 5.2747 -0.8593 -15.1281 -3.9754 -1.5050 28.0185 -2.5877 -0.6025 11.5531 0.0000 0.0000 0.0000 -81.4476 10.1803 25.0562 40.5592 -48.3978 -18.8564 -0.0000 -0.0000 8.4191 2.8573 -5.1661 -0.2575 -7.1250 0.0000 -0.0000 -17.6114 24.7710 9.0254 0.0000 0.0000 0.0000 59.7884 -8.9093 8.6501 -31.2897 41.9735 -12.2632 0.0000 -0.0000 -3.9660 4.1687 0.7687 0.0560 7.1250 -0.0000 -0.0000 23.4582 -28.7476 10.0771
3.5035 18.0024 3.3178 -0.4880 8.4197 -2.5611 0.0000 0.0000 0.0000 -22.4996 -4.8017 -2.6864 1.9270 8.7123 24.8994 -0.2630 14.2474 -16.9336 0.0646 -1.6402 -4.5122 0.0000 0.0000 0.0000 -4.4066 -17.8696 -27.0545 -7.6222 -15.8342 51.1902 -1.9003 -3.6205 25.1782 -0.1634 2.6044 -7.1791 -5.1801 0.8532 7.7734 3.2604 0.8201 0.8630 6.2534 0.5079 -3.5890 5.4235 -0.7584 -15.1497 -4.1250 -1.3597 27.9610 -2.6477 -0.5414 11.5405 -0.0000 -0.0000 0.0000 -81.4650 10.4176 24.3354 40.3246 -48.2611 -18.6811 -0.0000 -0.0000 8.5301 3.1815 -5.0936 -0.2827 -7.1250 0.0000 -0.0000 -17.3879 24.8409 8.8701 -0.0000 -0.0000 0.0000 59.9917 -8.8760 8.6900 -31.2709 41.9582 -12.2506 0.0000 -0.0000 -4.2144 3.7104 0.9225 0.0598 7.1250 -0.0000 -0.0000 23.0942 -28.6231 9.9690
3.4837 17.9991 3.3207 -0.4066 8.0418 -2.4219 0.0000 0.0000 0.0000 -22.4609 -4.5985 -2.9422 1.9439 8.7482 25.0108 -0.2604 14.2626 -16.9973 0.0685 -1.6883 -4.6449 0.0000 0.0000 0.0000 -3.9835 -18.1374 -27.2290 -7.7317 -15.9184 51.5906 -1.6359 -3.3479 23.3390 -0.1575 2.5570 -7.0477 -5.1953 0.9393 7.7448 3.2014 0.9323 0.8227 6.1868 0.5660 -3.6308 5.5346 -0.6658 -15.2032 -4.2469 -1.2263 27.8896 -2.6927 -0.4865 11.5294 -0.0000 0.0000 0.0000 -81.4664 10.6060 23.6227 40.0911 -48.1238 -18.5070 -0.0000 -0.0000 8.6117 3.4790 -4.9930 -0.3032 -7.1250 0.0000 -0.0000 -17.1867 24.9376 8.7172 -0.0000 0.0000 0.0000 60.1977 -8.8357 8.7690 -31.2613 41.9502 -12.2441 0.0000 -0.0000 -4.4400 3.3175 1.0494 0.0608 7.1250 -0.0000 -0.0000 22.7833 -28.5200 9.8737
3.4622 17.9957 3.3230 -0.3007 7.6790 -2.2792 0.0000 0.0000 0.0000 -22.4440 -4.3936 -3.2004 1.9602 8.7826 25.1176 -0.2567 14.2641 -17.0519 0.0728 -1.7412 -4.7909 0.0000 0.0000 0.0000 -3.5522 -18.3533 -27.3748 -7.8370 -15.9981 51.9736 -1.3763 -3.1603 21.3689 -0.1465 2.4669 -6.7979 -5.2407 1.0189 7.7203 3.1323 1.0327 0.7876 6.1281 0.6182 -3.6679 5.6146 -0.5733 -15.2865 -4.3413 -1.0942 27.8274 -2.7229 -0.4322 11.5288 -0.0000 0.0000 0.0000 -81.4551 10.7352 22.9038 39.8365 -47.9727 -18.3177 -0.0000 -0.0000 8.6204 3.7491 -4.8710 -0.3188 -7.1250 0.0000 -0.0000 -17.0077 25.0549 8.5694 -0.0000 0.0000 0.0000 60.4078 -8.7912 8.8844 -31.2573 41.9470 -12.2415 0.0000 -0.0000 -4.6245 3.0025 1.2093 0.0634 7.1250 -0.0000 -0.0000 22.5220 -28.3829 9.8222
3.4391 17.9923 3.3251 -0.1891 7.3328 -2.1324 0.0000 0.0000 0.0000 -22.4270 -4.1856 -3.4639 1.9756 8.8150 25.2182 -0.2511 14.2454 -17.0996 0.0777 -1.7984 -4.9489 0.0000 0.0000 0.0000 -3.0911 -18.5179 -27.4912 -7.9350 -16.0712 52.3282 -1.1285 -3.0741 19.2912 -0.1358 2.3751 -6.5434 -5.2943 1.0958 7.6965 3.0563 1.1284 0.7546 6.0673 0.6680 -3.7026 5.6495 -0.4939 -15.3818 -4.3933 -0.9813 27.7879 -2.7330 -0.3855 11.5391 0.0000 -0.0000 0.0000 -81.4116 10.8287 22.2293 39.5991 -47.8306 -18.1416 -0.0000 -0.0000 8.5701 4.0107 -4.7167 -0.3303 -7.1250 0.0000 -0.0000 -16.8387 25.2033 8.4155 0.0000 -0.0000 0.0000 60.6255 -8.7566 9.0240 -31.2684 41.9561 -12.2489 0.0000 -0.0000 -4.7679 2.7763 1.3786 0.0668 7.1250 -0.0000 -0.0000 22.3234 -28.2337 9.8081
3.4139 17.9895 3.3270 -0.0760 6.9966 -1.9766 0.0000 0.0000 0.0000 -22.4015 -3.9697 -3.7428 1.9906 8.8464 25.3160 -0.2432 14.2057 -17.1436 0.0833 -1.8618 -5.1240 0.0000 0.0000 0.0000 -2.5914 -18.6113 -27.5794 -8.0231 -16.1362 52.6460 -0.8991 -3.1494 17.1345 -0.1296 2.3203 -6.3917 -5.3613 1.1686 7.6718 2.9764 1.2174 0.7125 6.0108 0.7151 -3.7454 5.7027 -0.4105 -15.4187 -4.4555 -0.8620 27.6951 -2.7468 -0.3360 11.5175 0.0000 0.0000 0.0000 -81.3427 10.8949 21.5828 39.3633 -47.6881 -17.9670 -0.0000 -0.0000 8.4806 4.2848 -4.5501 -0.3405 -7.1250 0.0000 -0.0000 -16.6616 25.3637 8.2540 0.0000 0.0000 0.0000 60.8498 -8.7382 9.1941 -31.2903 41.9740 -12.2635 0.0000 -0.0000 -4.8611 2.6596 1.5553 0.0722 7.1250 -0.0000 -0.0000 22.2031 -28.0736 9.8389
3.3869 17.9866 3.3290 0.0468 6.6792 -1.7999 0.0000 0.0000 0.0000 -22.3778 -3.7548 -4.0464 2.0057 8.8780 25.4146 -0.2327 14.1426 -17.1859 0.0896 -1.9305 -5.3135 0.0000 0.0000 0.0000 -2.0663 -18.6426 -27.6453 -8.0987 -16.1914 52.9174 -0.6949 -3.4272 14.9593 -0.1274 2.3004 -6.3366 -5.4396 1.2397 7.6252 2.8864 1.3036 0.6576 5.9505 0.7613 -3.7888 5.7581 -0.3300 -15.4373 -4.5100 -0.7487 27.6128 -2.7590 -0.2874 11.4961 0.0000 0.0000 0.0000 -81.2393 10.9474 20.9983 39.1498 -47.5581 -17.8093 -0.0000 -0.0000 8.3674 4.5582 -4.3532 -0.3467 -7.1250 0.0000 -0.0000 -16.4884 25.5536 8.0843 0.0000 0.0000 0.0000 61.0876 -8.7446 9.3749 -31.3094 41.9896 -12.2763 0.0000 -0.0000 -4.8905 2.6213 1.7720 0.0811 7.1250 -0.0000 -0.0000 22.1317 -27.8739 9.9165
3.3576 17.9841 3.3311 0.1687 6.3750 -1.6032 0.0000 0.0000 0.0000 -22.3412 -3.5362 -4.3803 2.0219 8.9115 25.5188 -0.2190 14.0537 -17.2275 0.0963 -2.0014 -5.5095 0.0000 0.0000 0.0000 -1.5048 -18.6005 -27.6841 -8.1597 -16.2355 53.1358 -0.5158 -3.8890 12.7977 -0.1301 2.3252 -6.4052 -5.5295 1.3052 7.5666 2.7938 1.3819 0.5943 5.8951 0.8040 -3.8332 5.8157 -0.2441 -15.4593 -4.5592 -0.6295 27.5612 -2.7696 -0.2349 11.4877 -0.0000 0.0000 0.0000 -81.1095 10.9778 20.4663 38.9592 -47.4410 -17.6687 -0.0000 -0.0000 8.2396 4.8464 -4.1445 -0.3511 -7.1250 0.0000 -0.0000 -16.3053 25.7551 7.9068 -0.0000 0.0000 0.0000 61.3289 -8.7625 9.5878 -31.3443 42.0182 -12.2997 0.0000 -0.0000 -4.8896 2.6778 1.9667 0.0920 7.1250 -0.0000 -0.0000 22.1336 -27.6917 10.0216
3.3263 17.9818 3.3335 0.2761 6.0853 -1.3871 0.0000 0.0000 0.0000 -22.2770 -3.3120 -4.7475 2.0396 8.9481 25.6332 -0.2016 13.9319 -17.2695 0.1037 -2.0763 -5.7167 0.0000 0.0000 0.0000 -0.8970 -18.4840 -27.6918 -8.2031 -16.2666 53.2911 -0.3607 -4.5065 10.6949 -0.1339 2.3590 -6.4988 -5.6082 1.3670 7.4869 2.7028 1.4573 0.5209 5.8355 0.8453 -3.8758 5.8883 -0.1545 -15.4741 -4.6249 -0.5044 27.4959 -2.7876 -0.1803 11.4731 -0.0000 -0.0000 0.0000 -80.9549 11.0008 20.0039 38.8162 -47.3527 -17.5634 -0.0000 -0.0000 8.0905 5.1087 -3.8991 -0.3483 -7.1250 0.0000 -0.0000 -16.1453 25.9925 7.7293 -0.0000 -0.0000 0.0000 61.5732 -8.7968 9.8106 -31.3818 42.0488 -12.3248 0.0000 -0.0000 -4.8347 2.7925 2.1581 0.1052 7.1250 -0.0000 -0.0000 22.1779 -27.5108 10.1483
3.2927 17.9797 3.3357 0.3641 5.8074 -1.1489 0.0000 0.0000 0.0000 -22.1778 -3.0891 -5.1545 2.0597 8.9894 25.7623 -0.1801 13.7774 -17.3138 0.1114 -2.1516 -5.9247 0.0000 0.0000 0.0000 -0.2385 -18.2807 -27.6688 -8.2281 -16.2845 53.3800 -0.2251 -5.2046 8.6498 -0.1389 2.4024 -6.6192 -5.6792 1.4216 7.3931 2.6154 1.5245 0.4372 5.7763 0.8829 -3.9199 5.9640 -0.0572 -15.4866 -4.6896 -0.3688 27.4548 -2.8050 -0.1201 11.4682 0.0000 -0.0000 0.0000 -80.7843 11.0022 19.5872 38.6995 -47.2803 -17.4777 -0.0000 -0.0000 7.9192 5.3473 -3.6655 -0.3429 -7.1250 0.0000 -0.0000 -16.0007 26.2187 7.5661 0.0000 -0.0000 0.0000 61.8254 -8.8444 10.0484 -31.4328 42.0903 -12.3590 0.0000 -0.0000 -4.7346 2.9703 2.3663 0.1227 7.1250 -0.0000 -0.0000 22.2642 -27.3128 10.3079
3.2567 17.9783 3.3376 0.4312 5.5430 -0.8843 0.0000 0.0000 0.0000 -22.0404 -2.8674 -5.6082 2.0828 9.0364 25.9093 -0.1542 13.5832 -17.3581 0.1189 -2.2234 -6.1234 0.0000 0.0000 0.0000 0.4719 -17.9954 -27.6202 -8.2322 -16.2874 53.3949 -0.1074 -5.8464 6.6513 -0.1439 2.4449 -6.7369 -5.7409 1.4717 7.2807 2.5341 1.5876 0.3372 5.7190 0.9189 -3.9699 6.0233 0.0385 -15.4738 -4.7420 -0.2326 27.4211 -2.8147 -0.0595 11.4614 0.0000 0.0000 0.0000 -80.5898 11.0002 19.2529 38.6287 -47.2361 -17.4257 -0.0000 -0.0000 7.7116 5.5511 -3.4564 -0.3357 -7.1250 0.0000 -0.0000 -15.8782 26.4215 7.4248 0.0000 0.0000 0.0000 62.0819 -8.9307 10.2989 -31.5157 42.1577 -12.4146 0.0000 -0.0000 -4.6020 3.1872 2.5543 0.1422 7.1250 -0.0000 -0.0000 22.3822 -27.1324 10.4756
3.2184 17.9763 3.3396 0.5034 5.3082 -0.5968 0.0000 0.0000 0.0000 -21.8966 -2.6487 -6.1010 2.1094 9.0903 26.0781 -0.1233 13.3423 -17.3996 0.1269 -2.2961 -6.3247 0.0000 0.0000 0.0000 1.1909 -17.6609 -27.5400 -8.2150 -16.2751 53.3333 -0.0107 -6.2954 4.6899 -0.1486 2.4838 -6.8448 -5.8172 1.5075 7.1528 2.4510 1.6312 0.2260 5.6708 0.9458 -4.0204 6.0181 0.1265 -15.5009 -4.7383 -0.1066 27.4619 -2.7963 -0.0023 11.4912 -0.0000 0.0000 0.0000 -80.3859 10.9757 18.9466 38.5625 -47.1948 -17.3771 -0.0000 -0.0000 7.5167 5.7316 -3.3233 -0.3334 -7.1250 0.0000 -0.0000 -15.7625 26.5511 7.3166 -0.0000 0.0000 0.0000 62.3449 -9.0411 10.5595 -31.6180 42.2405 -12.4832 0.0000 -0.0000 -4.4077 3.4339 2.7868 0.1672 7.1250 -0.0000 -0.0000 22.5122 -26.9101 10.6756
